<svg xmlns="http://www.w3.org/2000/svg" xmlns:xlink="http://www.w3.org/1999/xlink" width="500" zoomAndPan="magnify" viewBox="0 0 375 374.999991" height="500" preserveAspectRatio="xMidYMid meet" version="1.0"><defs><g/></defs><rect x="-37.5" width="450" fill="#ffffff" y="-37.499999" height="449.999989" fill-opacity="1"/><rect x="-37.5" width="450" fill="#ffffff" y="-37.499999" height="449.999989" fill-opacity="1"/><g fill="#ffffff" fill-opacity="1"><g transform="translate(107.851312, 208.749298)"><g><path d="M 23.875 0 L -2.109375 -61.953125 L 13.8125 -61.953125 L 29.4375 -21.25 L 45.0625 -61.953125 L 60.96875 -61.953125 L 35 0 Z M 23.875 0 "/></g></g></g><g fill="#ffffff" fill-opacity="1"><g transform="translate(160.337491, 208.749298)"><g><path d="M 5.78125 -60 C 7.332031 -61.550781 9.179688 -62.328125 11.328125 -62.328125 C 13.484375 -62.328125 15.335938 -61.550781 16.890625 -60 C 18.441406 -58.445312 19.21875 -56.59375 19.21875 -54.4375 C 19.21875 -52.289062 18.441406 -50.441406 16.890625 -48.890625 C 15.335938 -47.335938 13.484375 -46.5625 11.328125 -46.5625 C 9.179688 -46.5625 7.332031 -47.335938 5.78125 -48.890625 C 4.226562 -50.441406 3.453125 -52.289062 3.453125 -54.4375 C 3.453125 -56.59375 4.226562 -58.445312 5.78125 -60 Z M 4.5 -38.515625 L 4.5 0 L 17.796875 0 L 17.796875 -38.515625 Z M 4.5 -38.515625 "/></g></g></g><g fill="#ffffff" fill-opacity="1"><g transform="translate(176.630929, 208.749298)"><g><path d="M 6.765625 -38.515625 L 6.765625 -52.859375 L 20.046875 -52.859375 L 20.046875 -38.515625 L 28.15625 -38.515625 L 28.15625 -28.390625 L 20.046875 -28.390625 L 20.046875 -16.140625 C 20.046875 -12.585938 21.046875 -10.8125 23.046875 -10.8125 C 23.554688 -10.8125 24.082031 -10.910156 24.625 -11.109375 C 25.175781 -11.316406 25.601562 -11.519531 25.90625 -11.71875 L 26.359375 -12.015625 L 29.65625 -1.28125 C 26.800781 0.320312 23.550781 1.125 19.90625 1.125 C 17.394531 1.125 15.238281 0.6875 13.4375 -0.1875 C 11.632812 -1.0625 10.269531 -2.238281 9.34375 -3.71875 C 8.414062 -5.195312 7.753906 -6.75 7.359375 -8.375 C 6.960938 -10 6.765625 -11.738281 6.765625 -13.59375 L 6.765625 -28.390625 L 1.203125 -28.390625 L 1.203125 -38.515625 Z M 6.765625 -38.515625 "/></g></g></g><g fill="#ffffff" fill-opacity="1"><g transform="translate(199.907621, 208.749298)"><g><path d="M 7.140625 -4.765625 C 3.535156 -8.691406 1.734375 -13.507812 1.734375 -19.21875 C 1.734375 -24.925781 3.535156 -29.757812 7.140625 -33.71875 C 10.742188 -37.675781 15.320312 -39.65625 20.875 -39.65625 C 25.976562 -39.65625 30.179688 -38.050781 33.484375 -34.84375 L 33.484375 -38.515625 L 46.78125 -38.515625 L 46.78125 0 L 33.640625 0 L 33.640625 -4.359375 L 33.484375 -4.359375 C 30.179688 -0.703125 25.976562 1.125 20.875 1.125 C 15.320312 1.125 10.742188 -0.835938 7.140625 -4.765625 Z M 18.4375 -25.75 C 16.707031 -24.050781 15.84375 -21.875 15.84375 -19.21875 C 15.84375 -16.570312 16.664062 -14.410156 18.3125 -12.734375 C 19.96875 -11.054688 22.148438 -10.21875 24.859375 -10.21875 C 27.460938 -10.21875 29.601562 -11.066406 31.28125 -12.765625 C 32.957031 -14.460938 33.796875 -16.613281 33.796875 -19.21875 C 33.796875 -21.875 32.929688 -24.050781 31.203125 -25.75 C 29.472656 -27.457031 27.359375 -28.3125 24.859375 -28.3125 C 22.304688 -28.3125 20.164062 -27.457031 18.4375 -25.75 Z M 18.4375 -25.75 "/></g></g></g><g fill="#ffffff" fill-opacity="1"><g transform="translate(244.809845, 208.749298)"><g><path d="M 4.5 0 L 4.5 -64.578125 L 17.796875 -64.578125 L 17.796875 0 Z M 4.5 0 "/></g></g></g></svg>