<svg width="62" height="23" viewBox="0 0 62 23" fill="none" xmlns="http://www.w3.org/2000/svg">
<path d="M6.264 22L0.58 6.34H4.524L8.236 17.186L11.948 6.34H15.892L10.208 22H6.264ZM18.8024 4.165V0.685H22.7464V4.165H18.8024ZM18.8024 22V6.34H22.7464V22H18.8024ZM36.4895 22C35.4068 22.203 34.3435 22.29 33.2995 22.261C32.2651 22.2417 31.3371 22.0628 30.5155 21.7245C29.7035 21.3765 29.0848 20.8207 28.6595 20.057C28.2728 19.3417 28.0698 18.6167 28.0505 17.882C28.0311 17.1377 28.0215 16.2967 28.0215 15.359V1.99H31.9655V15.127C31.9655 15.736 31.9703 16.287 31.98 16.78C31.9993 17.2633 32.1008 17.65 32.2845 17.94C32.6325 18.491 33.1883 18.7907 33.952 18.839C34.7156 18.8873 35.5615 18.8487 36.4895 18.723V22ZM25.3535 9.385V6.34H36.4895V9.385H25.3535ZM44.3292 22.435C43.2079 22.435 42.2557 22.2223 41.4727 21.797C40.6994 21.362 40.1097 20.7868 39.7037 20.0715C39.3074 19.3465 39.1092 18.549 39.1092 17.679C39.1092 16.954 39.2204 16.2918 39.4427 15.6925C39.6651 15.0932 40.0227 14.5663 40.5157 14.112C41.0184 13.648 41.6902 13.2613 42.5312 12.952C43.1112 12.7393 43.8024 12.5508 44.6047 12.3865C45.4071 12.2222 46.3157 12.0675 47.3307 11.9225C48.3457 11.7678 49.4622 11.5987 50.6802 11.415L49.2592 12.198C49.2592 11.27 49.0369 10.5885 48.5922 10.1535C48.1476 9.7185 47.4032 9.501 46.3592 9.501C45.7792 9.501 45.1751 9.64117 44.5467 9.9215C43.9184 10.2018 43.4786 10.6997 43.2272 11.415L39.6602 10.284C40.0566 8.98867 40.8009 7.935 41.8932 7.123C42.9856 6.311 44.4742 5.905 46.3592 5.905C47.7416 5.905 48.9692 6.11767 50.0422 6.543C51.1152 6.96833 51.9272 7.703 52.4782 8.747C52.7876 9.327 52.9712 9.907 53.0292 10.487C53.0872 11.067 53.1162 11.7147 53.1162 12.43V22H49.6652V18.781L50.1582 19.448C49.3946 20.5017 48.5681 21.2653 47.6787 21.739C46.7991 22.203 45.6826 22.435 44.3292 22.435ZM45.1702 19.332C45.8952 19.332 46.5042 19.2063 46.9972 18.955C47.4999 18.694 47.8962 18.3992 48.1862 18.0705C48.4859 17.7418 48.6889 17.4663 48.7952 17.244C48.9982 16.8187 49.1142 16.3257 49.1432 15.765C49.1819 15.1947 49.2012 14.721 49.2012 14.344L50.3612 14.634C49.1916 14.8273 48.2442 14.9917 47.5192 15.127C46.7942 15.2527 46.2094 15.3687 45.7647 15.475C45.3201 15.5813 44.9286 15.6973 44.5902 15.823C44.2036 15.9777 43.8894 16.1468 43.6477 16.3305C43.4157 16.5045 43.2417 16.6978 43.1257 16.9105C43.0194 17.1232 42.9662 17.36 42.9662 17.621C42.9662 17.9787 43.0532 18.288 43.2272 18.549C43.4109 18.8003 43.6671 18.9937 43.9957 19.129C44.3244 19.2643 44.7159 19.332 45.1702 19.332ZM57.1764 22V0.685H61.1204V22H57.1764Z" fill="white"/>
</svg>
